<svg width="363" height="38" viewBox="0 0 363 38" fill="none" xmlns="http://www.w3.org/2000/svg">
<path d="M0.160511 37V0.636363H14.5071C17.2533 0.636363 19.5971 1.1276 21.5384 2.11008C23.4915 3.08073 24.977 4.45975 25.995 6.24716C27.0249 8.02273 27.5398 10.112 27.5398 12.5149C27.5398 14.9297 27.0189 17.0071 25.9773 18.7472C24.9356 20.4754 23.4264 21.8011 21.4496 22.7244C19.4846 23.6477 17.1054 24.1094 14.3118 24.1094H4.70597V17.9304H13.0689C14.5367 17.9304 15.7559 17.7292 16.7266 17.3267C17.6972 16.9242 18.4193 16.3205 18.8928 15.5156C19.3781 14.7107 19.6207 13.7105 19.6207 12.5149C19.6207 11.3075 19.3781 10.2895 18.8928 9.46094C18.4193 8.63234 17.6913 8.00497 16.7088 7.57883C15.7382 7.14086 14.513 6.92188 13.0334 6.92188H7.84872V37H0.160511ZM19.7983 20.4517L28.8359 37H20.3487L11.5064 20.4517H19.7983ZM32.973 37V0.636363H57.4759V6.97514H40.6612V15.6399H56.2152V21.9787H40.6612V30.6612H57.5469V37H32.973ZM94.0037 0.636363V37H87.3631L71.5428 14.1129H71.2765V37H63.5882V0.636363H70.3354L86.0314 23.5057H86.351V0.636363H94.0037ZM113.246 37H100.356V0.636363H113.353C117.011 0.636363 120.159 1.36435 122.799 2.82031C125.439 4.26444 127.469 6.34185 128.889 9.05256C130.321 11.7633 131.038 15.0066 131.038 18.7827C131.038 22.5705 130.321 25.8258 128.889 28.5483C127.469 31.2708 125.427 33.3601 122.763 34.8161C120.112 36.272 116.94 37 113.246 37ZM108.044 30.4126H112.927C115.2 30.4126 117.111 30.0102 118.662 29.2053C120.224 28.3885 121.396 27.1278 122.178 25.4233C122.971 23.7069 123.367 21.4934 123.367 18.7827C123.367 16.0956 122.971 13.8999 122.178 12.1953C121.396 10.4908 120.23 9.23603 118.68 8.43111C117.129 7.62618 115.217 7.22372 112.945 7.22372H108.044V30.4126ZM136.733 37V0.636363H161.236V6.97514H144.421V15.6399H159.975V21.9787H144.421V30.6612H161.307V37H136.733ZM167.348 37V0.636363H181.695C184.441 0.636363 186.785 1.1276 188.726 2.11008C190.679 3.08073 192.165 4.45975 193.183 6.24716C194.212 8.02273 194.727 10.112 194.727 12.5149C194.727 14.9297 194.206 17.0071 193.165 18.7472C192.123 20.4754 190.614 21.8011 188.637 22.7244C186.672 23.6477 184.293 24.1094 181.499 24.1094H171.893V17.9304H180.256C181.724 17.9304 182.943 17.7292 183.914 17.3267C184.885 16.9242 185.607 16.3205 186.08 15.5156C186.566 14.7107 186.808 13.7105 186.808 12.5149C186.808 11.3075 186.566 10.2895 186.08 9.46094C185.607 8.63234 184.879 8.00497 183.896 7.57883C182.926 7.14086 181.701 6.92188 180.221 6.92188H175.036V37H167.348ZM186.986 20.4517L196.023 37H187.536L178.694 20.4517H186.986ZM211.733 37V0.636363H226.079C228.826 0.636363 231.169 1.1276 233.111 2.11008C235.064 3.08073 236.549 4.45975 237.567 6.24716C238.597 8.02273 239.112 10.112 239.112 12.5149C239.112 14.9297 238.591 17.0071 237.55 18.7472C236.508 20.4754 234.999 21.8011 233.022 22.7244C231.057 23.6477 228.678 24.1094 225.884 24.1094H216.278V17.9304H224.641C226.109 17.9304 227.328 17.7292 228.299 17.3267C229.269 16.9242 229.992 16.3205 230.465 15.5156C230.95 14.7107 231.193 13.7105 231.193 12.5149C231.193 11.3075 230.95 10.2895 230.465 9.46094C229.992 8.63234 229.264 8.00497 228.281 7.57883C227.31 7.14086 226.085 6.92188 224.606 6.92188H219.421V37H211.733ZM231.371 20.4517L240.408 37H231.921L223.079 20.4517H231.371ZM277.961 18.8182C277.961 22.7836 277.21 26.1572 275.706 28.9389C274.215 31.7206 272.179 33.8454 269.599 35.3132C267.03 36.7692 264.142 37.4972 260.934 37.4972C257.702 37.4972 254.802 36.7633 252.233 35.2955C249.665 33.8277 247.635 31.7029 246.143 28.9212C244.652 26.1394 243.906 22.7718 243.906 18.8182C243.906 14.8527 244.652 11.4792 246.143 8.69744C247.635 5.91572 249.665 3.79687 252.233 2.34091C254.802 0.873105 257.702 0.139203 260.934 0.139203C264.142 0.139203 267.03 0.873105 269.599 2.34091C272.179 3.79687 274.215 5.91572 275.706 8.69744C277.21 11.4792 277.961 14.8527 277.961 18.8182ZM270.167 18.8182C270.167 16.2495 269.782 14.0833 269.013 12.3196C268.255 10.5559 267.184 9.21828 265.799 8.30682C264.414 7.39536 262.792 6.93963 260.934 6.93963C259.075 6.93963 257.454 7.39536 256.069 8.30682C254.684 9.21828 253.607 10.5559 252.837 12.3196C252.08 14.0833 251.701 16.2495 251.701 18.8182C251.701 21.3868 252.08 23.553 252.837 25.3168C253.607 27.0805 254.684 28.4181 256.069 29.3295C257.454 30.241 259.075 30.6967 260.934 30.6967C262.792 30.6967 264.414 30.241 265.799 29.3295C267.184 28.4181 268.255 27.0805 269.013 25.3168C269.782 23.553 270.167 21.3868 270.167 18.8182ZM317.073 18.8182C317.073 22.7836 316.321 26.1572 314.818 28.9389C313.326 31.7206 311.29 33.8454 308.71 35.3132C306.141 36.7692 303.253 37.4972 300.045 37.4972C296.814 37.4972 293.913 36.7633 291.345 35.2955C288.776 33.8277 286.746 31.7029 285.255 28.9212C283.763 26.1394 283.017 22.7718 283.017 18.8182C283.017 14.8527 283.763 11.4792 285.255 8.69744C286.746 5.91572 288.776 3.79687 291.345 2.34091C293.913 0.873105 296.814 0.139203 300.045 0.139203C303.253 0.139203 306.141 0.873105 308.71 2.34091C311.29 3.79687 313.326 5.91572 314.818 8.69744C316.321 11.4792 317.073 14.8527 317.073 18.8182ZM309.278 18.8182C309.278 16.2495 308.893 14.0833 308.124 12.3196C307.366 10.5559 306.295 9.21828 304.91 8.30682C303.525 7.39536 301.904 6.93963 300.045 6.93963C298.187 6.93963 296.565 7.39536 295.18 8.30682C293.795 9.21828 292.718 10.5559 291.949 12.3196C291.191 14.0833 290.812 16.2495 290.812 18.8182C290.812 21.3868 291.191 23.553 291.949 25.3168C292.718 27.0805 293.795 28.4181 295.18 29.3295C296.565 30.241 298.187 30.6967 300.045 30.6967C301.904 30.6967 303.525 30.241 304.91 29.3295C306.295 28.4181 307.366 27.0805 308.124 25.3168C308.893 23.553 309.278 21.3868 309.278 18.8182ZM322.768 0.636363H332.249L342.264 25.0682H342.69L352.704 0.636363H362.186V37H354.728V13.3317H354.426L345.016 36.8224H339.938L330.527 13.2429H330.225V37H322.768V0.636363Z" fill="#212127"/>
</svg>
